<svg xmlns="http://www.w3.org/2000/svg" viewBox="0 0 64 64" width="64" height="64">
  <!-- Círculo de fundo -->
  <circle cx="32" cy="32" r="30" fill="#000" />
  <circle cx="32" cy="32" r="28" fill="#000" stroke="#000" stroke-width="1" />
  
  <!-- Marcadores de horas -->
  <line x1="32" y1="8" x2="32" y2="12" stroke="#fff" stroke-width="2" />
  <line x1="32" y1="52" x2="32" y2="56" stroke="#fff" stroke-width="2" />
  <line x1="8" y1="32" x2="12" y2="32" stroke="#fff" stroke-width="2" />
  <line x1="52" y1="32" x2="56" y2="32" stroke="#fff" stroke-width="2" />
  
  <line x1="16" y1="16" x2="19" y2="19" stroke="#fff" stroke-width="2" />
  <line x1="16" y1="48" x2="19" y2="45" stroke="#fff" stroke-width="2" />
  <line x1="48" y1="16" x2="45" y2="19" stroke="#fff" stroke-width="2" />
  <line x1="48" y1="48" x2="45" y2="45" stroke="#fff" stroke-width="2" />
  
  <!-- Números das horas (simplificados para pontos) -->
  <circle cx="32" cy="8" r="1.5" fill="#fff" />
  <circle cx="56" cy="32" r="1.5" fill="#fff" />
  <circle cx="32" cy="56" r="1.5" fill="#fff" />
  <circle cx="8" cy="32" r="1.5" fill="#fff" />
  
  <!-- Ponto central -->
  <circle cx="32" cy="32" r="2" fill="#fff" />
  
  <!-- Ponteiros -->
  <line x1="32" y1="32" x2="32" y2="16" stroke="#fff" stroke-width="2.5" stroke-linecap="round" />
  <line x1="32" y1="32" x2="44" y2="32" stroke="#fff" stroke-width="2" stroke-linecap="round" />
  
  <!-- Borda externa -->
  <circle cx="32" cy="32" r="30" fill="none" stroke="#fff" stroke-width="2" />
</svg>